<svg width="101" height="95" viewBox="0 0 101 95" fill="none" xmlns="http://www.w3.org/2000/svg">
<path d="M12.7849 87.6548L9.68604 92.3035" stroke="#FAFF1E" stroke-width="5" stroke-linecap="round"/>
<path d="M87.3396 87.6548L90.4385 92.3035" stroke="#FAFF1E" stroke-width="5" stroke-linecap="round"/>
<path d="M40.7358 16.3665V3" stroke="#FAFF1E" stroke-width="5" stroke-linecap="round"/>
<path d="M59.1948 16.3665V3" stroke="#FAFF1E" stroke-width="5" stroke-linecap="round"/>
<rect x="9.41113" y="34.6886" width="69.6518" height="44.1917" rx="9.5" stroke="#FCD869"/>
<rect x="2.5" y="23.3221" width="95.5674" height="62.4692" rx="7.5" stroke="#FAFF1E" stroke-width="5"/>
<circle cx="73.7966" cy="73.3335" r="2.22776" fill="black"/>
<circle cx="69.3413" cy="73.3335" r="1.59126" fill="#FAFF1E"/>
<circle cx="65.5224" cy="73.3335" r="1.59126" fill="#FAFF1E"/>
<circle cx="87.5193" cy="76.516" r="3.50076" fill="#FAFF1E"/>
<path d="M19.3892 48C19.3703 47.7633 19.2815 47.5786 19.1229 47.446C18.9666 47.3134 18.7287 47.2472 18.4091 47.2472C18.2055 47.2472 18.0386 47.272 17.9084 47.3217C17.7805 47.3691 17.6858 47.4342 17.6243 47.517C17.5627 47.5999 17.5308 47.6946 17.5284 47.8011C17.5237 47.8887 17.5391 47.968 17.5746 48.0391C17.6125 48.1077 17.6716 48.1705 17.7521 48.2273C17.8326 48.2817 17.9356 48.3314 18.0611 48.3764C18.1866 48.4214 18.3357 48.4616 18.5085 48.4972L19.1051 48.625C19.5076 48.7102 19.852 48.8227 20.1385 48.9624C20.425 49.102 20.6593 49.2666 20.8416 49.456C21.0239 49.643 21.1577 49.8537 21.2429 50.0881C21.3305 50.3224 21.3755 50.5781 21.3778 50.8551C21.3755 51.3333 21.2559 51.7382 21.0192 52.0696C20.7824 52.401 20.4439 52.6532 20.0036 52.826C19.5656 52.9988 19.0388 53.0852 18.4233 53.0852C17.7912 53.0852 17.2396 52.9917 16.7685 52.8047C16.2997 52.6177 15.9351 52.33 15.6747 51.9418C15.4167 51.5511 15.2865 51.0516 15.2841 50.4432H17.1591C17.1709 50.6657 17.2266 50.8527 17.326 51.0043C17.4254 51.1558 17.5651 51.2706 17.745 51.3487C17.9273 51.4268 18.1439 51.4659 18.3949 51.4659C18.6056 51.4659 18.782 51.4399 18.924 51.3878C19.0661 51.3357 19.1738 51.2635 19.2472 51.1712C19.3205 51.0788 19.3584 50.9735 19.3608 50.8551C19.3584 50.7438 19.3217 50.6468 19.2507 50.5639C19.1821 50.4787 19.0684 50.4029 18.9098 50.3366C18.7512 50.268 18.5369 50.2041 18.267 50.1449L17.5426 49.9886C16.8987 49.849 16.3909 49.6158 16.0192 49.2891C15.6499 48.96 15.4664 48.5114 15.4688 47.9432C15.4664 47.4815 15.5895 47.0779 15.8381 46.7322C16.089 46.3842 16.4358 46.1132 16.8786 45.919C17.3236 45.7249 17.8338 45.6278 18.4091 45.6278C18.9962 45.6278 19.504 45.7261 19.9325 45.9226C20.361 46.1191 20.6913 46.3961 20.9233 46.7536C21.1577 47.1087 21.276 47.5241 21.2784 48H19.3892ZM24.7852 53.0994C24.1933 53.0994 23.6867 52.9822 23.2653 52.7479C22.8439 52.5111 22.5207 52.1821 22.2958 51.7607C22.0709 51.3369 21.9585 50.8456 21.9585 50.2869C21.9585 49.7282 22.0709 49.2382 22.2958 48.8168C22.5207 48.393 22.8439 48.0639 23.2653 47.8295C23.6867 47.5928 24.1933 47.4744 24.7852 47.4744C25.3202 47.4744 25.783 47.5715 26.1737 47.7656C26.5666 47.9574 26.8709 48.2296 27.0863 48.5824C27.3017 48.9328 27.4106 49.3447 27.413 49.8182H25.5948C25.5688 49.5317 25.4859 49.3139 25.3462 49.1648C25.2089 49.0133 25.0314 48.9375 24.8136 48.9375C24.6431 48.9375 24.494 48.9872 24.3661 49.0866C24.2383 49.1837 24.1388 49.3317 24.0678 49.5305C23.9968 49.727 23.9613 49.9744 23.9613 50.2727C23.9613 50.571 23.9968 50.8196 24.0678 51.0185C24.1388 51.215 24.2383 51.3629 24.3661 51.4624C24.494 51.5594 24.6431 51.608 24.8136 51.608C24.958 51.608 25.0858 51.5748 25.1971 51.5085C25.3084 51.4399 25.3983 51.3404 25.467 51.2102C25.538 51.0777 25.5806 50.9167 25.5948 50.7273H27.413C27.4059 51.2079 27.2958 51.6269 27.0827 51.9844C26.8697 52.3395 26.5678 52.6141 26.1772 52.8082C25.7889 53.0024 25.3249 53.0994 24.7852 53.0994ZM30.182 49.9318V53H28.2218V45.7273H30.111V48.5824H30.1678C30.2909 48.2344 30.4957 47.9633 30.7821 47.7692C31.0686 47.5727 31.4131 47.4744 31.8155 47.4744C32.2014 47.4744 32.5364 47.562 32.8205 47.7372C33.1069 47.9124 33.3283 48.1539 33.4846 48.4616C33.6432 48.7694 33.7213 49.1222 33.7189 49.5199V53H31.7587V49.9318C31.7611 49.6619 31.6936 49.45 31.5563 49.2962C31.4213 49.1423 31.2284 49.0653 30.9775 49.0653C30.8188 49.0653 30.6792 49.1009 30.5584 49.1719C30.44 49.2405 30.3477 49.34 30.2814 49.4702C30.2175 49.598 30.1844 49.7519 30.182 49.9318ZM37.3145 53.0994C36.7226 53.0994 36.216 52.9822 35.7946 52.7479C35.3732 52.5111 35.05 52.1821 34.8251 51.7607C34.6002 51.3369 34.4877 50.8456 34.4877 50.2869C34.4877 49.7282 34.6002 49.2382 34.8251 48.8168C35.05 48.393 35.3732 48.0639 35.7946 47.8295C36.216 47.5928 36.7226 47.4744 37.3145 47.4744C37.9063 47.4744 38.4129 47.5928 38.8343 47.8295C39.2557 48.0639 39.5789 48.393 39.8038 48.8168C40.0287 49.2382 40.1412 49.7282 40.1412 50.2869C40.1412 50.8456 40.0287 51.3369 39.8038 51.7607C39.5789 52.1821 39.2557 52.5111 38.8343 52.7479C38.4129 52.9822 37.9063 53.0994 37.3145 53.0994ZM37.3287 51.6506C37.4944 51.6506 37.6376 51.5949 37.7583 51.4837C37.8791 51.3724 37.9726 51.2138 38.0389 51.0078C38.1052 50.8018 38.1383 50.5568 38.1383 50.2727C38.1383 49.9863 38.1052 49.7412 38.0389 49.5376C37.9726 49.3317 37.8791 49.1731 37.7583 49.0618C37.6376 48.9505 37.4944 48.8949 37.3287 48.8949C37.1535 48.8949 37.0031 48.9505 36.8777 49.0618C36.7522 49.1731 36.6563 49.3317 36.59 49.5376C36.5237 49.7412 36.4906 49.9863 36.4906 50.2727C36.4906 50.5568 36.5237 50.8018 36.59 51.0078C36.6563 51.2138 36.7522 51.3724 36.8777 51.4837C37.0031 51.5949 37.1535 51.6506 37.3287 51.6506ZM43.5645 53.0994C42.9726 53.0994 42.466 52.9822 42.0446 52.7479C41.6232 52.5111 41.3 52.1821 41.0751 51.7607C40.8502 51.3369 40.7377 50.8456 40.7377 50.2869C40.7377 49.7282 40.8502 49.2382 41.0751 48.8168C41.3 48.393 41.6232 48.0639 42.0446 47.8295C42.466 47.5928 42.9726 47.4744 43.5645 47.4744C44.1563 47.4744 44.6629 47.5928 45.0843 47.8295C45.5057 48.0639 45.8289 48.393 46.0538 48.8168C46.2787 49.2382 46.3912 49.7282 46.3912 50.2869C46.3912 50.8456 46.2787 51.3369 46.0538 51.7607C45.8289 52.1821 45.5057 52.5111 45.0843 52.7479C44.6629 52.9822 44.1563 53.0994 43.5645 53.0994ZM43.5787 51.6506C43.7444 51.6506 43.8876 51.5949 44.0083 51.4837C44.1291 51.3724 44.2226 51.2138 44.2889 51.0078C44.3552 50.8018 44.3883 50.5568 44.3883 50.2727C44.3883 49.9863 44.3552 49.7412 44.2889 49.5376C44.2226 49.3317 44.1291 49.1731 44.0083 49.0618C43.8876 48.9505 43.7444 48.8949 43.5787 48.8949C43.4035 48.8949 43.2531 48.9505 43.1277 49.0618C43.0022 49.1731 42.9063 49.3317 42.84 49.5376C42.7737 49.7412 42.7406 49.9863 42.7406 50.2727C42.7406 50.5568 42.7737 50.8018 42.84 51.0078C42.9063 51.2138 43.0022 51.3724 43.1277 51.4837C43.2531 51.5949 43.4035 51.6506 43.5787 51.6506ZM49.1468 45.7273V53H47.1866V45.7273H49.1468Z" fill="white"/>
<path d="M15.8438 72V58.9091H21.5199C22.517 58.9091 23.3544 59.0433 24.032 59.3118C24.7138 59.5803 25.2273 59.9595 25.5724 60.4496C25.9219 60.9396 26.0966 61.517 26.0966 62.1818C26.0966 62.6634 25.9901 63.1023 25.777 63.4986C25.5682 63.8949 25.2741 64.2273 24.8949 64.4957C24.5156 64.7599 24.0724 64.9432 23.5653 65.0455V65.1733C24.1278 65.1946 24.6392 65.3374 25.0994 65.6016C25.5597 65.8615 25.9261 66.2216 26.1989 66.6818C26.4716 67.1378 26.608 67.6747 26.608 68.2926C26.608 69.0085 26.4205 69.6456 26.0455 70.2038C25.6747 70.7621 25.1463 71.201 24.4602 71.5206C23.7741 71.8402 22.956 72 22.0057 72H15.8438ZM19.3977 69.1619H21.0597C21.6563 69.1619 22.1037 69.0511 22.402 68.8295C22.7003 68.6037 22.8494 68.2713 22.8494 67.8324C22.8494 67.5256 22.7791 67.2656 22.6385 67.0526C22.4979 66.8395 22.2976 66.6776 22.0376 66.5668C21.782 66.456 21.473 66.4006 21.1108 66.4006H19.3977V69.1619ZM19.3977 64.2017H20.8551C21.1662 64.2017 21.4411 64.1527 21.6797 64.0547C21.9183 63.9567 22.1037 63.8161 22.2358 63.6328C22.3722 63.4453 22.4403 63.2173 22.4403 62.9489C22.4403 62.544 22.2955 62.2351 22.0057 62.022C21.7159 61.8047 21.3494 61.696 20.9062 61.696H19.3977V64.2017ZM40.549 65.4545C40.549 66.9119 40.2656 68.1413 39.6989 69.1428C39.1321 70.1399 38.3672 70.8963 37.4041 71.4119C36.4411 71.9233 35.3672 72.179 34.1825 72.179C32.9893 72.179 31.9112 71.9212 30.9482 71.4055C29.9893 70.8857 29.2266 70.1271 28.6598 69.13C28.0973 68.1286 27.8161 66.9034 27.8161 65.4545C27.8161 63.9972 28.0973 62.7699 28.6598 61.7727C29.2266 60.7713 29.9893 60.0149 30.9482 59.5036C31.9112 58.9879 32.9893 58.7301 34.1825 58.7301C35.3672 58.7301 36.4411 58.9879 37.4041 59.5036C38.3672 60.0149 39.1321 60.7713 39.6989 61.7727C40.2656 62.7699 40.549 63.9972 40.549 65.4545ZM36.8928 65.4545C36.8928 64.6705 36.7884 64.0099 36.5795 63.473C36.375 62.9318 36.0703 62.5227 35.6655 62.2457C35.2649 61.9645 34.7706 61.8239 34.1825 61.8239C33.5945 61.8239 33.098 61.9645 32.6932 62.2457C32.2926 62.5227 31.9879 62.9318 31.7791 63.473C31.5746 64.0099 31.4723 64.6705 31.4723 65.4545C31.4723 66.2386 31.5746 66.9013 31.7791 67.4425C31.9879 67.9794 32.2926 68.3885 32.6932 68.6697C33.098 68.9467 33.5945 69.0852 34.1825 69.0852C34.7706 69.0852 35.2649 68.9467 35.6655 68.6697C36.0703 68.3885 36.375 67.9794 36.5795 67.4425C36.7884 66.9013 36.8928 66.2386 36.8928 65.4545ZM45.1241 58.9091L47.2718 62.7188H47.3741L49.5474 58.9091H53.5105L49.5985 65.4545L53.6639 72H49.5985L47.3741 68.1136H47.2718L45.0474 72H41.0076L45.0218 65.4545L41.1355 58.9091H45.1241Z" fill="#FAFF1E"/>
</svg>
